<svg xmlns="http://www.w3.org/2000/svg" xmlns:xlink="http://www.w3.org/1999/xlink" width="116" height="114" viewBox="0 0 116 114"><defs><style>.a{fill:#edfcf6;}.b{fill:#5ad6a6;}.c{filter:url(#a);}</style><filter id="a" x="0" y="0" width="116" height="114" filterUnits="userSpaceOnUse"><feOffset dy="10" input="SourceAlpha"/><feGaussianBlur stdDeviation="10" result="b"/><feFlood flood-color="#f5e3f9" flood-opacity="0.11"/><feComposite operator="in" in2="b"/><feComposite in="SourceGraphic"/></filter></defs><g transform="translate(-248 -4274)"><g class="c" transform="matrix(1, 0, 0, 1, 248, 4274)"><rect class="a" width="56" height="54" rx="15" transform="translate(30 20)"/></g><path class="b" d="M9.325,18.951a1.243,1.243,0,0,1-1.758,0L.546,11.93a1.864,1.864,0,0,1,0-2.637l.879-.879a1.864,1.864,0,0,1,2.637,0L8.446,12.8,20.29.953a1.864,1.864,0,0,1,2.637,0l.879.879a1.864,1.864,0,0,1,0,2.637Zm0,0" transform="translate(294.128 4311.012)"/></g></svg>