<svg xmlns="http://www.w3.org/2000/svg" xmlns:xlink="http://www.w3.org/1999/xlink" width="133" height="130" viewBox="0 0 133 130"><defs><style>.a{fill:#875fff;opacity:0.1;}.b{fill:#8056ff;}.c{filter:url(#a);}</style><filter id="a" x="0" y="0" width="133" height="130" filterUnits="userSpaceOnUse"><feOffset dy="10" input="SourceAlpha"/><feGaussianBlur stdDeviation="10" result="b"/><feFlood flood-color="#f5e3f9" flood-opacity="0.11"/><feComposite operator="in" in2="b"/><feComposite in="SourceGraphic"/></filter></defs><g transform="translate(30 20)"><g class="c" transform="matrix(1, 0, 0, 1, -30, -20)"><rect class="a" width="73" height="70" rx="15" transform="translate(30 20)"/></g><g transform="translate(22 16)"><g transform="translate(9.715 11.334)"><path class="b" d="M143.381,149.333H128.81a.81.81,0,0,0,0,1.619h14.572a.81.81,0,0,0,0-1.619Z" transform="translate(-128 -149.333)"/></g><g transform="translate(3.238 29.144)"><path class="b" d="M45.1,384a2.429,2.429,0,1,0,2.429,2.429A2.432,2.432,0,0,0,45.1,384Zm0,3.238a.81.81,0,1,1,.809-.81A.81.81,0,0,1,45.1,387.238Z" transform="translate(-42.667 -384)"/></g><g transform="translate(3.238 22.667)"><path class="b" d="M45.1,298.667a2.429,2.429,0,1,0,2.429,2.429A2.432,2.432,0,0,0,45.1,298.667Zm0,3.238a.81.81,0,1,1,.81-.809A.81.81,0,0,1,45.1,301.905Z" transform="translate(-42.667 -298.667)"/></g><g transform="translate(3.238 16.191)"><path class="b" d="M45.1,213.333a2.429,2.429,0,1,0,2.429,2.429A2.432,2.432,0,0,0,45.1,213.333Zm0,3.238a.81.81,0,1,1,.81-.81A.81.81,0,0,1,45.1,216.571Z" transform="translate(-42.667 -213.333)"/></g><g transform="translate(3.238 9.715)"><path class="b" d="M45.1,128a2.429,2.429,0,1,0,2.429,2.429A2.432,2.432,0,0,0,45.1,128Zm0,3.238a.81.81,0,1,1,.809-.81A.81.81,0,0,1,45.1,131.238Z" transform="translate(-42.667 -128)"/></g><path class="b" d="M34.613,8.1a4.216,4.216,0,0,0-3,1.243L29.38,11.572l-.236.236V5.667a2.432,2.432,0,0,0-2.429-2.429h-4.2a2.424,2.424,0,0,0-2.28-1.619H17.366a3.221,3.221,0,0,0-5.589,0H8.905a2.424,2.424,0,0,0-2.28,1.619h-4.2A2.432,2.432,0,0,0,0,5.667V36.429a2.432,2.432,0,0,0,2.429,2.429H26.715a2.432,2.432,0,0,0,2.429-2.429V23.81l6.233-6.233,0,0,0,0,2.229-2.229a4.243,4.243,0,0,0-3-7.244ZM8.1,4.048a.81.81,0,0,1,.81-.81h3.387a.812.812,0,0,0,.763-.539,1.606,1.606,0,0,1,3.034,0,.81.81,0,0,0,.763.539h3.387a.81.81,0,0,1,.81.81v.81H8.1ZM27.524,36.429a.81.81,0,0,1-.81.81H2.429a.81.81,0,0,1-.81-.81V5.667a.81.81,0,0,1,.81-.81H6.476v.81a.81.81,0,0,0,.81.81H21.858a.81.81,0,0,0,.81-.81v-.81h4.048a.81.81,0,0,1,.81.81v7.76L23.04,17.912a.791.791,0,0,0-.372-.1H10.524a.81.81,0,1,0,0,1.619h11l-4.857,4.857H10.524a.81.81,0,0,0,0,1.619h5.44L14.75,30.763H10.524a.81.81,0,1,0,0,1.619h4.857a.733.733,0,0,0,.2-.026l6.476-1.619c.019,0,.032-.023.052-.029a.813.813,0,0,0,.274-.154c.015-.013.037-.015.052-.029l5.094-5.1v11ZM17.6,26.03a5.12,5.12,0,0,1,3.321,3.321l-4.43,1.109Zm4.684,2.348a6.693,6.693,0,0,0-3.711-3.711L29.953,13.289,33.664,17ZM36.47,14.194l-1.661,1.661L31.1,12.145l1.661-1.663a2.625,2.625,0,0,1,3.711,3.713Z"/></g></g></svg>