<svg xmlns="http://www.w3.org/2000/svg" xmlns:xlink="http://www.w3.org/1999/xlink" width="133" height="130" viewBox="0 0 133 130"><defs><style>.a{fill:#57e5ac;opacity:0.1;}.b,.c{fill:none;stroke:#5ad6a6;stroke-miterlimit:10;stroke-width:2px;}.c{stroke-linecap:round;}.d{filter:url(#a);}</style><filter id="a" x="0" y="0" width="133" height="130" filterUnits="userSpaceOnUse"><feOffset dy="10" input="SourceAlpha"/><feGaussianBlur stdDeviation="10" result="b"/><feFlood flood-color="#f5e3f9" flood-opacity="0.11"/><feComposite operator="in" in2="b"/><feComposite in="SourceGraphic"/></filter></defs><g transform="translate(30 20)"><g class="d" transform="matrix(1, 0, 0, 1, -30, -20)"><rect class="a" width="73" height="70" rx="15" transform="translate(30 20)"/></g><g transform="translate(15.5 19)"><rect class="b" width="45" height="31" rx="5"/><line class="b" x2="45.151" transform="translate(0 23.352)"/><line class="b" y2="5.283" transform="translate(24.715 30.908)"/><line class="c" x1="10.597" transform="translate(16.798 36.192)"/><line class="b" y2="5.283" transform="translate(19.439 30.908)"/><path class="c" d="M635.084,520.563l4.515-7.741a.348.348,0,0,1,.562-.056l3.45,3.909a.346.346,0,0,0,.556-.047l1.939-3.119a.346.346,0,0,1,.569-.03l3.345,4.266a.349.349,0,0,0,.56-.015l5.71-8.177" transform="translate(-622.894 -501.458)"/></g></g></svg>