<svg xmlns="http://www.w3.org/2000/svg" xmlns:xlink="http://www.w3.org/1999/xlink" width="133" height="130" viewBox="0 0 133 130"><defs><style>.a{fill:#ffe014;opacity:0.1;}.b{fill:none;stroke:#feb301;stroke-miterlimit:10;stroke-width:2px;}.c{filter:url(#a);}</style><filter id="a" x="0" y="0" width="133" height="130" filterUnits="userSpaceOnUse"><feOffset dy="10" input="SourceAlpha"/><feGaussianBlur stdDeviation="10" result="b"/><feFlood flood-color="#f5e3f9" flood-opacity="0.11"/><feComposite operator="in" in2="b"/><feComposite in="SourceGraphic"/></filter></defs><g transform="translate(30 20)"><g class="c" transform="matrix(1, 0, 0, 1, -30, -20)"><rect class="a" width="73" height="70" rx="15" transform="translate(30 20)"/></g><g transform="translate(18 17)"><ellipse class="b" cx="12.715" cy="12.341" rx="12.715" ry="12.341" transform="translate(5.547 5.921)"/><circle class="b" cx="18.262" cy="18.262" r="18.262"/><line class="b" x2="4.294" y2="3.756" transform="translate(4.288 6.505)"/><line class="b" x2="3.135" y2="4.935" transform="translate(9.158 2.427)"/><line class="b" y1="4.954" x2="3.035" transform="translate(25.347 3.059)"/><line class="b" y1="3.151" x2="4.737" transform="translate(28.366 7.62)"/><line class="b" y1="3.756" x2="4.294" transform="translate(4.288 26.097)"/><line class="b" y1="4.935" x2="3.135" transform="translate(9.158 28.995)"/><line class="b" x2="3.035" y2="4.954" transform="translate(25.347 28.345)"/><line class="b" x2="4.737" y2="3.151" transform="translate(28.366 25.587)"/></g></g></svg>