<svg xmlns="http://www.w3.org/2000/svg" xmlns:xlink="http://www.w3.org/1999/xlink" width="908.18" height="557.416" viewBox="0 0 908.18 557.416"><defs><style>.a{fill:none;}.b{fill:#e4e7ec;}.c{fill:#ebeff6;}.d{clip-path:url(#a);}.e{fill:url(#b);}.f{fill:#fff;}.g{fill:#f2f2f2;}.h{fill:#fdfdfe;}.i{opacity:0.45;}.i,.m{mix-blend-mode:multiply;}.i,.k,.m{isolation:isolate;}.j{clip-path:url(#c);}.k{mix-blend-mode:screen;}.l{clip-path:url(#d);}.n{clip-path:url(#e);}.o{fill:#d3d3d3;stroke:rgba(0,0,0,0);font-size:20px;font-family:Raleway-Bold, Raleway;font-weight:700;}</style><clipPath id="a"><path class="a" d="M35.336,0A20.5,20.5,0,0,0,14.83,20.506V527.675H793.879V20.506A20.5,20.5,0,0,0,773.372,0Z" transform="translate(-14.83)"/></clipPath><linearGradient id="b" x1="-0.197" y1="1.057" x2="-0.183" y2="1.057" gradientUnits="objectBoundingBox"><stop offset="0" stop-color="#323232"/><stop offset="1" stop-color="#1c1c1c"/></linearGradient><clipPath id="c"><rect class="b" width="134.83" height="8.887"/></clipPath><clipPath id="d"><rect class="a" width="135.454" height="9.228"/></clipPath><clipPath id="e"><rect class="c" width="779.055" height="527.674"/></clipPath></defs><g transform="translate(-90)"><g transform="translate(156.515)"><g class="d"><rect class="e" width="783.678" height="920.959" transform="translate(-185.148 451.804) rotate(-67.716)"/></g></g><g transform="translate(0 0.002)"><path class="f" d="M793.879,527.675H14.83V20.506A20.505,20.505,0,0,1,35.326,0H773.372a20.508,20.508,0,0,1,20.506,20.506Z" transform="translate(141.685 -0.002)"/><rect class="g" width="743.028" height="467.455" transform="translate(174.53 32.432)"/><path class="b" d="M916.408,50.475v1.91c0,4.148-2.649,8.095-6.67,11.43-8.095,6.807-21.572,11.367-29.868,11.367H45.107c-8.306,0-21.773-4.559-29.878-11.367-4.01-3.335-6.67-7.282-6.67-11.43v-1.91Z" transform="translate(81.772 482.232)"/><path class="h" d="M916.408,53.461v3.472c0,4.158-2.649,8.105-6.67,11.43H15.229c-4.01-3.324-6.67-7.272-6.67-11.43V53.461A3.48,3.48,0,0,1,12.031,50h900.9a3.473,3.473,0,0,1,3.472,3.462" transform="translate(81.441 477.685)"/><g class="i" transform="translate(686.157 527.663)"><g class="j" transform="translate(-209.157)"><path class="b" d="M148.126,50H65.014a9.685,9.685,0,0,0,9.625,8.886H190.226A9.667,9.667,0,0,0,199.84,50Z" transform="translate(-65.018 -49.997)"/></g></g><g class="k" transform="translate(685.845 527.635)"><g class="l"><path class="f" d="M190.5,59.229H74.916a9.937,9.937,0,0,1-9.931-9.171l.623-.063a9.315,9.315,0,0,0,9.309,8.6H190.5a9.308,9.308,0,0,0,9.309-8.6l.623.063a9.93,9.93,0,0,1-9.931,9.171" transform="translate(-64.983 -49.998)"/></g></g><g class="m" transform="translate(156.513 -0.002)"><g class="n"><path class="c" d="M773.383,1.784A18.737,18.737,0,0,1,792.1,20.506V525.892H16.614V20.506A18.746,18.746,0,0,1,35.336,1.784H773.383m0-1.784H35.336A20.507,20.507,0,0,0,14.83,20.506V527.675H793.889V20.506A20.508,20.508,0,0,0,773.383,0" transform="translate(-14.828)"/></g></g><path class="f" d="M62.363,6.517a5.456,5.456,0,1,1-5.456-5.456,5.45,5.45,0,0,1,5.456,5.456" transform="translate(491.55 10.135)"/><text class="o" transform="translate(259 230.998)"><tspan x="30.49" y="19">USE ESTE ASSET PARA SEU PORTFÓLIO ADICIONE, NESTE </tspan><tspan x="39.08" y="43">RETANGULO CINZA UM SITE DESENVOLVIDO POR VOCÊ</tspan></text></g></g></svg>